<?xml version="1.0" encoding="UTF-8" standalone="no"?>
<!DOCTYPE svg PUBLIC "-//W3C//DTD SVG 1.1//EN" "http://www.w3.org/Graphics/SVG/1.1/DTD/svg11.dtd">
<svg width="100%" height="100%" viewBox="0 0 400 236" version="1.1" xmlns="http://www.w3.org/2000/svg"
     xml:space="preserve"
     style="fill-rule:evenodd;clip-rule:evenodd;stroke-linecap:round;stroke-linejoin:round;stroke-miterlimit:1.5;">
    <g transform="matrix(1,0,0,1,0,-237)">
        <g id="ci-cd" transform="matrix(1.42523,0,0,0.690732,-626.509,272.037)">
            <rect x="440" y="-50" width="280" height="340" style="fill:none;"/>
            <g transform="matrix(0.224123,0,0,0.462446,416.143,-110.431)">
                <circle cx="188.521" cy="217.611" r="53.855" style="fill:none;"/>
                <clipPath id="_clip1">
                    <circle cx="188.521" cy="217.611" r="53.855"/>
                </clipPath>
                <g clip-path="url(#_clip1)">
                    <g transform="matrix(6.53084e-17,1.06657,-1.06657,6.53084e-17,360.907,-438.327)">
                        <path d="M615,140L640,170L590,170L615,140Z"
                              style="fill:rgb(75,158,255);stroke:rgb(75,158,255);stroke-width:10.27px;"/>
                    </g>
                </g>
                <path d="M188.521,152.799C152.75,152.799 123.708,181.841 123.708,217.611C123.708,253.382 152.75,282.424 188.521,282.424C224.292,282.424 253.333,253.382 253.333,217.611C253.333,181.841 224.292,152.799 188.521,152.799ZM188.521,163.756C218.244,163.756 242.376,187.888 242.376,217.611C242.376,247.335 218.244,271.467 188.521,271.467C158.797,271.467 134.666,247.335 134.666,217.611C134.666,187.888 158.797,163.756 188.521,163.756Z"
                      style="fill:rgb(75,158,255);"/>
            </g>
            <g transform="matrix(0.245044,0,0,0.505614,456.106,-27.4162)">
                <circle cx="188.521" cy="217.611" r="53.855" style="fill:none;"/>
                <clipPath id="_clip2">
                    <circle cx="188.521" cy="217.611" r="53.855"/>
                </clipPath>
                <g clip-path="url(#_clip2)">
                    <g transform="matrix(0.887946,0.887946,-0.887946,0.887946,-245.538,-471.064)">
                        <path d="M620,160L640,160L640,120"
                              style="fill:none;stroke:rgb(25,219,0);stroke-width:7.98px;stroke-linecap:square;stroke-linejoin:miter;"/>
                    </g>
                </g>
                <circle cx="188.521" cy="217.611" r="53.855"
                        style="fill:none;stroke:rgb(25,219,0);stroke-width:10.02px;stroke-linejoin:miter;"/>
            </g>
            <g transform="matrix(0.245044,0,0,0.505614,540.025,-27.4162)">
                <circle cx="188.521" cy="217.611" r="53.855" style="fill:none;"/>
                <clipPath id="_clip3">
                    <circle cx="188.521" cy="217.611" r="53.855"/>
                </clipPath>
                <g clip-path="url(#_clip3)">
                    <g transform="matrix(0.887946,0.887946,-0.887946,0.887946,-245.538,-471.064)">
                        <path d="M620,160L640,160L640,120"
                              style="fill:none;stroke:rgb(25,219,0);stroke-width:7.98px;stroke-linecap:square;stroke-linejoin:miter;"/>
                    </g>
                </g>
                <circle cx="188.521" cy="217.611" r="53.855"
                        style="fill:none;stroke:rgb(25,219,0);stroke-width:10.02px;stroke-linejoin:miter;"/>
            </g>
            <g transform="matrix(0.245044,0,0,0.505614,623.943,-27.4162)">
                <circle cx="188.521" cy="217.611" r="53.855" style="fill:none;"/>
                <clipPath id="_clip4">
                    <circle cx="188.521" cy="217.611" r="53.855"/>
                </clipPath>
                <g clip-path="url(#_clip4)">
                    <g transform="matrix(0.887946,0.887946,-0.887946,0.887946,-245.538,-471.064)">
                        <path d="M620,160L640,160L640,120"
                              style="fill:none;stroke:rgb(25,219,0);stroke-width:7.98px;stroke-linecap:square;stroke-linejoin:miter;"/>
                    </g>
                </g>
                <circle cx="188.521" cy="217.611" r="53.855"
                        style="fill:none;stroke:rgb(25,219,0);stroke-width:10.02px;stroke-linejoin:miter;"/>
            </g>
            <g transform="matrix(0.7622,0,0,1.44774,421.107,-405.98)">
                <path d="M130.791,337.486L192.364,337.486"
                      style="fill:none;stroke:rgb(75,158,255);stroke-width:3.35px;stroke-linecap:square;stroke-linejoin:miter;stroke-dasharray:3.35,6.7,0,0;"/>
            </g>
            <g transform="matrix(0.7622,0,0,1.44774,505.025,-405.98)">
                <path d="M130.791,337.486L192.364,337.486"
                      style="fill:none;stroke:rgb(75,158,255);stroke-width:3.35px;stroke-linecap:square;stroke-linejoin:miter;stroke-dasharray:3.35,6.7,0,0;"/>
            </g>
            <g transform="matrix(0.70164,0,0,1.44774,437.712,-403.997)">
                <path d="M29.478,298.145L29.478,313.153C29.478,325.835 39.759,336.116 52.442,336.116L67.449,336.116"
                      style="fill:none;stroke:rgb(75,158,255);stroke-width:3.5px;stroke-linecap:square;stroke-linejoin:miter;"/>
            </g>
            <g transform="matrix(-0.70164,0,0,-1.44774,734.358,569.219)">
                <path d="M88.82,255.468L52.441,255.468C39.759,255.468 29.478,265.749 29.478,278.431C29.478,289.311 29.478,302.274 29.478,313.153C29.478,325.835 39.759,336.116 52.442,336.116C60.438,336.116 67.449,336.116 67.449,336.116"
                      style="fill:none;stroke:rgb(75,158,255);stroke-width:3.5px;stroke-linecap:square;stroke-linejoin:miter;"/>
            </g>
            <g transform="matrix(0.70164,0,0,1.44774,437.712,-433.285)">
                <path d="M333.97,436.994L333.969,436.994C328.976,436.994 324.929,432.947 324.929,427.954C324.929,424.652 324.929,420.862 324.929,417.337C324.929,410.662 319.518,405.251 312.843,405.251C305.265,405.251 296.924,405.251 296.924,405.251"
                      style="fill:none;stroke:rgb(75,158,255);stroke-width:3.5px;stroke-linecap:square;stroke-linejoin:miter;"/>
            </g>
            <g transform="matrix(0.70164,0,0,-1.44774,437.712,832.021)">
                <path d="M333.97,436.994L333.969,436.994C328.976,436.994 324.929,432.947 324.929,427.954C324.929,424.652 324.929,420.862 324.929,417.337C324.929,410.662 319.518,405.251 312.843,405.251C305.265,405.251 296.924,405.251 296.924,405.251"
                      style="fill:none;stroke:rgb(75,158,255);stroke-width:3.5px;stroke-linecap:square;stroke-linejoin:miter;"/>
            </g>
            <g transform="matrix(-0.70164,0,0,1.44774,818.648,-433.285)">
                <path d="M333.97,468.737L333.969,468.737C331.571,468.737 329.272,467.785 327.577,466.089C325.881,464.394 324.929,462.095 324.929,459.697C324.929,448.585 324.929,429.687 324.929,417.337C324.929,410.662 319.518,405.251 312.843,405.251L296.924,405.251"
                      style="fill:none;stroke:rgb(75,158,255);stroke-width:3.5px;stroke-linecap:square;stroke-linejoin:miter;"/>
            </g>
            <g transform="matrix(0.70164,0,0,1.44774,414.392,-389.804)">
                <rect x="284.405" y="354.924" width="40.585" height="40.585" style="fill:none;"/>
                <g transform="matrix(0.681096,0,0,0.681096,212.139,104.771)">
                    <path d="M138.77,377.443C136.865,377.164 134.93,377.164 133.025,377.443L133.085,382.934C131.228,383.303 129.462,384.035 127.887,385.087L124.047,381.162C122.503,382.312 121.134,383.68 119.985,385.225L123.909,389.065C122.857,390.639 122.126,392.405 121.756,394.262L116.266,394.202C115.987,396.107 115.987,398.043 116.266,399.948L121.756,399.888C122.126,401.745 122.857,403.511 123.909,405.085L119.985,408.925C121.134,410.47 122.503,411.838 124.047,412.988L127.887,409.063C129.462,410.115 131.228,410.847 133.085,411.216L133.025,416.707C134.93,416.986 136.865,416.986 138.77,416.707L138.711,411.216C140.568,410.847 142.334,410.115 143.908,409.063L147.748,412.988C149.292,411.838 150.661,410.47 151.811,408.925L147.886,405.085C148.938,403.511 149.67,401.745 150.039,399.888L155.529,399.948C155.808,398.043 155.808,396.107 155.529,394.202L150.039,394.262C149.67,392.405 148.938,390.639 147.886,389.065L151.811,385.225C150.661,383.68 149.292,382.312 147.748,381.162L143.908,385.087C142.334,384.035 140.568,383.303 138.711,382.934L138.77,377.443ZM135.898,387.571C141.143,387.571 145.401,391.83 145.401,397.075C145.401,402.32 141.143,406.579 135.898,406.579C130.652,406.579 126.394,402.32 126.394,397.075C126.394,391.83 130.652,387.571 135.898,387.571Z"
                          style="fill:rgb(75,158,255);"/>
                </g>
                <rect x="284.405" y="354.924" width="40.585" height="40.585"
                      style="fill:none;stroke:rgb(75,158,255);stroke-width:3.5px;stroke-linecap:square;stroke-linejoin:miter;"/>
            </g>
            <g transform="matrix(0.70164,0,0,1.44774,414.392,-297.893)">
                <rect x="284.405" y="354.924" width="40.585" height="40.585" style="fill:none;"/>
                <g transform="matrix(0.681096,0,0,0.681096,212.139,104.771)">
                    <path d="M138.77,377.443C136.865,377.164 134.93,377.164 133.025,377.443L133.085,382.934C131.228,383.303 129.462,384.035 127.887,385.087L124.047,381.162C122.503,382.312 121.134,383.68 119.985,385.225L123.909,389.065C122.857,390.639 122.126,392.405 121.756,394.262L116.266,394.202C115.987,396.107 115.987,398.043 116.266,399.948L121.756,399.888C122.126,401.745 122.857,403.511 123.909,405.085L119.985,408.925C121.134,410.47 122.503,411.838 124.047,412.988L127.887,409.063C129.462,410.115 131.228,410.847 133.085,411.216L133.025,416.707C134.93,416.986 136.865,416.986 138.77,416.707L138.711,411.216C140.568,410.847 142.334,410.115 143.908,409.063L147.748,412.988C149.292,411.838 150.661,410.47 151.811,408.925L147.886,405.085C148.938,403.511 149.67,401.745 150.039,399.888L155.529,399.948C155.808,398.043 155.808,396.107 155.529,394.202L150.039,394.262C149.67,392.405 148.938,390.639 147.886,389.065L151.811,385.225C150.661,383.68 149.292,382.312 147.748,381.162L143.908,385.087C142.334,384.035 140.568,383.303 138.711,382.934L138.77,377.443ZM135.898,387.571C141.143,387.571 145.401,391.83 145.401,397.075C145.401,402.32 141.143,406.579 135.898,406.579C130.652,406.579 126.394,402.32 126.394,397.075C126.394,391.83 130.652,387.571 135.898,387.571Z"
                          style="fill:rgb(75,158,255);"/>
                </g>
                <rect x="284.405" y="354.924" width="40.585" height="40.585"
                      style="fill:none;stroke:rgb(75,158,255);stroke-width:3.5px;stroke-linecap:square;stroke-linejoin:miter;"/>
            </g>
            <g transform="matrix(0.508105,0,0,1.04841,462.069,-246.837)">
                <path d="M118.397,441.416L104.019,441.416C92.272,441.399 82.764,431.855 82.764,420.103C82.764,408.34 92.314,398.79 104.077,398.79C106.092,398.79 108.042,399.07 109.891,399.594C112.765,386.485 124.456,376.66 138.424,376.66C154.546,376.66 167.634,389.749 167.634,405.87C167.634,409.317 167.036,412.625 165.937,415.697L167.634,415.697C174.732,415.697 180.494,421.459 180.494,428.556C180.494,435.626 174.776,441.371 167.717,441.416L144.109,441.416"
                      style="fill:none;stroke:rgb(75,158,255);stroke-width:4.83px;stroke-linecap:square;"/>
            </g>
            <g transform="matrix(0.70164,0,0,1.44774,439.583,-387.64)">
                <g transform="matrix(1,-0,-0,1,-0,232.719)">
                    <path d="M122.119,174.55L127.369,169.3L132.619,174.55"
                          style="fill:none;stroke:rgb(75,158,255);stroke-width:3.5px;stroke-linecap:butt;stroke-linejoin:miter;stroke-miterlimit:10;"/>
                    <path d="M248.501,204.49L127.369,204.49L127.369,169.3"
                          style="fill:none;stroke:rgb(75,158,255);stroke-width:3.5px;stroke-linecap:butt;stroke-linejoin:miter;"/>
                </g>
            </g>
        </g>
    </g>
</svg>
