<?xml version="1.0" encoding="UTF-8" standalone="no"?>
<!DOCTYPE svg PUBLIC "-//W3C//DTD SVG 1.1//EN" "http://www.w3.org/Graphics/SVG/1.1/DTD/svg11.dtd">
<svg width="100%" height="100%" viewBox="0 0 397 223" version="1.1" xmlns="http://www.w3.org/2000/svg"
     xml:space="preserve"
     style="fill-rule:evenodd;clip-rule:evenodd;stroke-linecap:round;stroke-linejoin:round;stroke-miterlimit:1.5;">
    <g transform="matrix(1,0,0,1,-61,-101)">
        <g transform="matrix(0.917862,0,0,0.934719,31.8615,11.5428)">
            <path d="M460,107.879C460,103.53 456.405,100 451.976,100L358.024,100C353.595,100 350,103.53 350,107.879L350,322.121C350,326.47 353.595,330 358.024,330L451.976,330C456.405,330 460,326.47 460,322.121L460,107.879Z"
                  style="fill:none;stroke:black;stroke-opacity:0.25;stroke-width:3.78px;stroke-dasharray:3.78,7.56,0,0;"/>
        </g>
        <g transform="matrix(0.908333,0,0,0.908333,17.75,23.75)">
            <g transform="matrix(1.10092,-0,-0,1.10092,47.6147,85.0459)">
                <path d="M143.985,159.347L145.441,166.627L138.16,168.083"
                      style="fill:none;stroke:rgb(75,158,255);stroke-width:3.5px;stroke-linejoin:miter;stroke-miterlimit:10;"/>
                <path d="M93,131.667C93,131.667 135.505,160.004 145.441,166.627"
                      style="fill:none;stroke:rgb(75,158,255);stroke-width:3.5px;"/>
            </g>
        </g>
        <g transform="matrix(0.903204,0,0,1,33.4582,0)">
            <g transform="matrix(1.10717,-0,-0,1,30.4935,101)">
                <path d="M313.37,168.75L318.62,174L313.37,179.25"
                      style="fill:none;stroke:rgb(75,158,255);stroke-width:3.5px;stroke-linejoin:miter;stroke-miterlimit:10;"/>
                <path d="M238,174L318.62,174" style="fill:none;stroke:rgb(75,158,255);stroke-width:3.5px;"/>
            </g>
        </g>
        <g transform="matrix(0.875256,0,0,0.875256,23.3189,20.9509)">
            <g transform="matrix(1.14252,-0,-0,1.14252,43.0515,91.458)">
                <path d="M144.665,48.86L151.91,50.483L150.287,57.728"
                      style="fill:none;stroke:rgb(75,158,255);stroke-width:3.5px;stroke-linejoin:miter;stroke-miterlimit:10;"/>
                <path d="M92.732,88C92.732,88 141.174,57.289 151.91,50.483"
                      style="fill:none;stroke:rgb(75,158,255);stroke-width:3.5px;"/>
            </g>
        </g>
        <g transform="matrix(0.884058,0,0,0.924242,39.087,11.1835)">
            <g transform="matrix(1.13115,-0,-0,1.08197,24.7869,97.1785)">
                <path d="M291.275,41.372L296.525,46.622L291.275,51.872"
                      style="fill:none;stroke:rgb(75,158,255);stroke-width:3.5px;stroke-linejoin:miter;stroke-miterlimit:10;"/>
                <path d="M238,46.622L296.525,46.622" style="fill:none;stroke:rgb(75,158,255);stroke-width:3.5px;"/>
            </g>
        </g>
        <g transform="matrix(0.517458,0,0,0.517458,332.792,86.0271)">
            <path d="M170,311.429C170,307.802 167.055,304.858 163.428,304.858L111.752,304.858C108.125,304.858 105.18,307.802 105.18,311.429L105.18,423.428C105.18,427.055 108.125,430 111.752,430L163.428,430C167.055,430 170,427.055 170,423.428L170,311.429Z"
                  style="fill:rgb(226,239,247);"/>
            <clipPath id="_clip1">
                <path d="M170,311.429C170,307.802 167.055,304.858 163.428,304.858L111.752,304.858C108.125,304.858 105.18,307.802 105.18,311.429L105.18,423.428C105.18,427.055 108.125,430 111.752,430L163.428,430C167.055,430 170,427.055 170,423.428L170,311.429Z"/>
            </clipPath>
            <g clip-path="url(#_clip1)">
                <g transform="matrix(1.74801,0,0,1.74801,-317.211,7.66203)">
                    <circle cx="260.182" cy="173.779" r="1.677" style="fill:rgb(75,158,255);"/>
                </g>
            </g>
            <path d="M176.764,311.429C176.764,304.069 170.788,298.094 163.428,298.094L111.752,298.094C104.392,298.094 98.417,304.069 98.417,311.429L98.417,423.428C98.417,430.788 104.392,436.764 111.752,436.764L163.428,436.764C170.788,436.764 176.764,430.788 176.764,423.428L176.764,311.429ZM170,311.429C170,307.802 167.055,304.858 163.428,304.858L111.752,304.858C108.125,304.858 105.18,307.802 105.18,311.429L105.18,423.428C105.18,427.055 108.125,430 111.752,430L163.428,430C167.055,430 170,427.055 170,423.428L170,311.429Z"
                  style="fill:rgb(75,158,255);"/>
        </g>
        <g transform="matrix(0.904523,0,0,0.904523,24.442,59.3339)">
            <g transform="matrix(0.963508,0,0,5.91554,45.3048,-1002.99)">
                <rect x="187.728" y="180" width="62.272" height="12.102" style="fill:rgb(226,239,247);"/>
                <path d="M254.016,179.346L183.712,179.346L183.712,192.756L254.016,192.756L254.016,179.346ZM250,180L187.728,180L187.728,192.102L250,192.102L250,180Z"
                      style="fill:rgb(75,158,255);"/>
            </g>
            <g transform="matrix(1,0,0,0.771005,39.0709,-45.7215)">
                <path d="M256,216.961C256,214.134 254.231,211.839 252.051,211.839L181.444,211.839C179.264,211.839 177.495,214.134 177.495,216.961L177.495,227.204C177.495,230.031 179.264,232.326 181.444,232.326L252.051,232.326C254.231,232.326 256,230.031 256,227.204L256,216.961Z"
                      style="fill:rgb(226,239,247);"/>
                <clipPath id="_clip2">
                    <path d="M256,216.961C256,214.134 254.231,211.839 252.051,211.839L181.444,211.839C179.264,211.839 177.495,214.134 177.495,216.961L177.495,227.204C177.495,230.031 179.264,232.326 181.444,232.326L252.051,232.326C254.231,232.326 256,230.031 256,227.204L256,216.961Z"/>
                </clipPath>
                <g clip-path="url(#_clip2)">
                    <g transform="matrix(1,0,0,1.29701,-11.3943,-3.30999)">
                        <circle cx="260.182" cy="173.779" r="1.677" style="fill:rgb(75,158,255);"/>
                    </g>
                    <g transform="matrix(1,0,0,1.29701,-17.5592,-3.30999)">
                        <circle cx="260.182" cy="173.779" r="1.677" style="fill:rgb(75,158,255);"/>
                    </g>
                </g>
                <path d="M259.869,216.961C259.869,211.364 256.366,206.82 252.051,206.82L181.444,206.82C177.129,206.82 173.625,211.364 173.625,216.961L173.625,227.204C173.625,232.801 177.129,237.345 181.444,237.345L252.051,237.345C256.366,237.345 259.869,232.801 259.869,227.204C259.869,227.204 259.869,216.961 259.869,216.961ZM256,216.961C256,214.134 254.231,211.839 252.051,211.839L181.444,211.839C179.264,211.839 177.495,214.134 177.495,216.961L177.495,227.204C177.495,230.031 179.264,232.326 181.444,232.326L252.051,232.326C254.231,232.326 256,230.031 256,227.204L256,216.961Z"
                      style="fill:rgb(75,158,255);"/>
            </g>
            <g transform="matrix(1,0,0,0.771005,39.4343,-73.6193)">
                <path d="M256,216.961C256,214.134 254.231,211.839 252.051,211.839L181.444,211.839C179.264,211.839 177.495,214.134 177.495,216.961L177.495,227.204C177.495,230.031 179.264,232.326 181.444,232.326L252.051,232.326C254.231,232.326 256,230.031 256,227.204L256,216.961Z"
                      style="fill:rgb(226,239,247);"/>
                <clipPath id="_clip3">
                    <path d="M256,216.961C256,214.134 254.231,211.839 252.051,211.839L181.444,211.839C179.264,211.839 177.495,214.134 177.495,216.961L177.495,227.204C177.495,230.031 179.264,232.326 181.444,232.326L252.051,232.326C254.231,232.326 256,230.031 256,227.204L256,216.961Z"/>
                </clipPath>
                <g clip-path="url(#_clip3)">
                    <g transform="matrix(1,0,0,1.29701,-11.7578,-3.30999)">
                        <circle cx="260.182" cy="173.779" r="1.677" style="fill:rgb(75,158,255);"/>
                    </g>
                    <g transform="matrix(1,0,0,1.29701,-17.9226,-3.30999)">
                        <circle cx="260.182" cy="173.779" r="1.677" style="fill:rgb(75,158,255);"/>
                    </g>
                </g>
                <path d="M259.869,216.961C259.869,211.364 256.366,206.82 252.051,206.82C252.051,206.82 181.444,206.82 181.444,206.82C177.129,206.82 173.625,211.364 173.625,216.961L173.625,227.204C173.625,232.801 177.129,237.345 181.444,237.345C181.444,237.345 252.051,237.345 252.051,237.345C256.366,237.345 259.869,232.801 259.869,227.204C259.869,227.204 259.869,216.961 259.869,216.961ZM256,216.961C256,214.134 254.231,211.839 252.051,211.839L181.444,211.839C179.264,211.839 177.495,214.134 177.495,216.961L177.495,227.204C177.495,230.031 179.264,232.326 181.444,232.326L252.051,232.326C254.231,232.326 256,230.031 256,227.204L256,216.961Z"
                      style="fill:rgb(75,158,255);"/>
            </g>
            <g transform="matrix(1,0,0,0.771005,39.0709,-101.517)">
                <path d="M256,216.961C256,214.134 254.231,211.839 252.051,211.839L181.444,211.839C179.264,211.839 177.495,214.134 177.495,216.961L177.495,227.204C177.495,230.031 179.264,232.326 181.444,232.326L252.051,232.326C254.231,232.326 256,230.031 256,227.204L256,216.961Z"
                      style="fill:rgb(226,239,247);"/>
                <clipPath id="_clip4">
                    <path d="M256,216.961C256,214.134 254.231,211.839 252.051,211.839L181.444,211.839C179.264,211.839 177.495,214.134 177.495,216.961L177.495,227.204C177.495,230.031 179.264,232.326 181.444,232.326L252.051,232.326C254.231,232.326 256,230.031 256,227.204L256,216.961Z"/>
                </clipPath>
                <g clip-path="url(#_clip4)">
                    <g transform="matrix(1,0,0,1.29701,-11.3943,-3.30999)">
                        <circle cx="260.182" cy="173.779" r="1.677" style="fill:rgb(75,158,255);"/>
                    </g>
                    <g transform="matrix(1,0,0,1.29701,-17.5592,-3.30999)">
                        <circle cx="260.182" cy="173.779" r="1.677" style="fill:rgb(75,158,255);"/>
                    </g>
                </g>
                <path d="M259.869,216.961C259.869,211.364 256.366,206.82 252.051,206.82L181.444,206.82C177.129,206.82 173.625,211.364 173.625,216.961L173.625,227.204C173.625,232.801 177.129,237.345 181.444,237.345C181.444,237.345 252.051,237.345 252.051,237.345C256.366,237.345 259.869,232.801 259.869,227.204C259.869,227.204 259.869,216.961 259.869,216.961ZM256,216.961C256,214.134 254.231,211.839 252.051,211.839L181.444,211.839C179.264,211.839 177.495,214.134 177.495,216.961L177.495,227.204C177.495,230.031 179.264,232.326 181.444,232.326L252.051,232.326C254.231,232.326 256,230.031 256,227.204L256,216.961Z"
                      style="fill:rgb(75,158,255);"/>
            </g>
        </g>
        <g transform="matrix(0.989551,0,0,3.16083,189.506,-554.262)">
            <path d="M256,212.995C256,212.357 254.345,211.839 252.307,211.839L181.187,211.839C179.149,211.839 177.495,212.357 177.495,212.995L177.495,231.17C177.495,231.808 179.149,232.326 181.187,232.326L252.307,232.326C254.345,232.326 256,231.808 256,231.17L256,212.995Z"
                  style="fill:rgb(226,239,247);"/>
            <clipPath id="_clip5">
                <path d="M256,212.995C256,212.357 254.345,211.839 252.307,211.839L181.187,211.839C179.149,211.839 177.495,212.357 177.495,212.995L177.495,231.17C177.495,231.808 179.149,232.326 181.187,232.326L252.307,232.326C254.345,232.326 256,231.808 256,231.17L256,212.995Z"/>
            </clipPath>
            <g clip-path="url(#_clip5)">
                <g transform="matrix(1,0,0,0.313067,-77.3178,158.904)">
                    <circle cx="260.182" cy="173.779" r="1.677" style="fill:rgb(75,158,255);"/>
                </g>
                <g transform="matrix(1,0,0,0.313067,-72.0174,158.904)">
                    <circle cx="260.182" cy="173.779" r="1.677" style="fill:rgb(75,158,255);"/>
                </g>
                <g transform="matrix(1,0,0,0.313067,-66.9878,158.904)">
                    <circle cx="260.182" cy="173.779" r="1.677" style="fill:rgb(75,158,255);"/>
                </g>
                <g transform="matrix(1,0,0,0.313067,-178.676,147.845)">
                    <path d="M356.171,215.489L434.676,215.489"
                          style="fill:none;stroke:rgb(75,158,255);stroke-width:3.54px;"/>
                </g>
            </g>
            <path d="M259.537,212.995C259.537,211.746 256.297,210.732 252.307,210.732L181.187,210.732C177.197,210.732 173.958,211.746 173.958,212.995C173.958,212.995 173.958,231.17 173.958,231.17C173.958,232.419 177.197,233.433 181.187,233.433C181.187,233.433 252.307,233.433 252.307,233.433C256.297,233.433 259.537,232.419 259.537,231.17L259.537,212.995ZM256,212.995C256,212.357 254.345,211.839 252.307,211.839L181.187,211.839C179.149,211.839 177.495,212.357 177.495,212.995L177.495,231.17C177.495,231.808 179.149,232.326 181.187,232.326L252.307,232.326C254.345,232.326 256,231.808 256,231.17L256,212.995Z"
                  style="fill:rgb(75,158,255);"/>
        </g>
        <g transform="matrix(0.542382,0,0,0.542382,162.765,158.925)">
            <path d="M131.831,198.744C137.115,174.564 158.672,156.446 184.428,156.446C214.151,156.446 238.283,180.577 238.283,210.301C238.283,216.656 237.18,222.755 235.145,228.418L238.283,228.418L240.706,228.541C252.655,229.756 261.992,239.86 261.992,252.128C261.992,265.213 251.368,275.837 238.283,275.837L118.199,275.837L118.199,275.719C97.865,274.244 81.806,257.254 81.806,236.542C81.806,214.854 99.414,197.246 121.102,197.246C124.821,197.246 128.421,197.764 131.831,198.744Z"
                  style="fill:rgb(226,239,247);"/>
            <path d="M127.224,191.203C135.209,167.267 157.816,149.993 184.428,149.993C217.713,149.993 244.736,177.016 244.736,210.301C244.736,214.451 244.315,218.504 243.51,222.419C257.668,224.899 268.445,237.264 268.445,252.128C268.445,268.775 254.93,282.29 238.283,282.29C238.283,282.29 238.283,275.837 238.283,275.837L238.283,282.29L121.102,282.29C121.102,282.29 121.102,275.837 121.102,275.837L121.102,282.29L111.746,282.29L111.746,281.317C90.977,277.004 75.353,258.584 75.353,236.542C75.353,211.292 95.853,190.793 121.102,190.793C123.178,190.793 125.221,190.932 127.224,191.203ZM131.831,198.744C137.115,174.564 158.672,156.446 184.428,156.446C214.151,156.446 238.283,180.577 238.283,210.301C238.283,216.656 237.18,222.755 235.145,228.418L238.283,228.418L240.706,228.541C252.655,229.756 261.992,239.86 261.992,252.128C261.992,265.213 251.368,275.837 238.283,275.837L118.199,275.837L118.199,275.719C97.865,274.244 81.806,257.254 81.806,236.542C81.806,214.854 99.414,197.246 121.102,197.246C124.821,197.246 128.421,197.764 131.831,198.744Z"
                  style="fill:rgb(75,158,255);"/>
        </g>
        <g transform="matrix(1.08256,0,0,1.08256,-35.3501,-71.7488)">
            <g transform="matrix(1,0,0,1,0,24.1797)">
                <path d="M95.455,243.91L168.309,243.91L168.309,256C168.309,262.673 151.986,268.09 131.882,268.09C111.777,268.09 95.455,262.673 95.455,256L95.455,243.91Z"
                      style="fill:rgb(226,239,247);"/>
                <path d="M95.455,240.677C93.669,240.677 92.222,242.125 92.222,243.91L92.222,256C92.222,258.899 94.016,261.868 97.781,264.277C104.178,268.371 117.037,271.323 131.882,271.323C146.726,271.323 159.585,268.371 165.983,264.277C169.748,261.868 171.542,258.899 171.542,256C171.542,256 171.542,243.91 171.542,243.91C171.542,242.125 170.094,240.677 168.309,240.677L95.455,240.677ZM95.455,243.91L168.309,243.91L168.309,256C168.309,262.673 151.986,268.09 131.882,268.09C111.777,268.09 95.455,262.673 95.455,256L95.455,243.91Z"
                      style="fill:rgb(75,158,255);"/>
            </g>
            <g transform="matrix(1,0,0,1,0,12.0898)">
                <path d="M95.455,243.91L168.309,243.91L168.309,256C168.309,262.673 151.986,268.09 131.882,268.09C111.777,268.09 95.455,262.673 95.455,256L95.455,243.91Z"
                      style="fill:rgb(226,239,247);"/>
                <path d="M95.455,240.677C93.669,240.677 92.222,242.125 92.222,243.91L92.222,256C92.222,258.899 94.016,261.868 97.781,264.277C104.178,268.371 117.037,271.323 131.882,271.323C146.726,271.323 159.585,268.371 165.983,264.277C169.748,261.868 171.542,258.899 171.542,256C171.542,256 171.542,243.91 171.542,243.91C171.542,242.125 170.094,240.677 168.309,240.677L95.455,240.677ZM95.455,243.91L168.309,243.91L168.309,256C168.309,262.673 151.986,268.09 131.882,268.09C111.777,268.09 95.455,262.673 95.455,256L95.455,243.91Z"
                      style="fill:rgb(75,158,255);"/>
            </g>
            <path d="M95.455,243.91L168.309,243.91L168.309,256C168.309,262.673 151.986,268.09 131.882,268.09C111.777,268.09 95.455,262.673 95.455,256L95.455,243.91Z"
                  style="fill:rgb(226,239,247);"/>
            <path d="M95.455,240.677C93.669,240.677 92.222,242.125 92.222,243.91L92.222,256C92.222,258.899 94.016,261.868 97.781,264.277C104.178,268.371 117.037,271.323 131.882,271.323C146.726,271.323 159.585,268.371 165.983,264.277C169.748,261.868 171.542,258.899 171.542,256C171.542,256 171.542,243.91 171.542,243.91C171.542,242.125 170.094,240.677 168.309,240.677L95.455,240.677ZM95.455,243.91L168.309,243.91L168.309,256C168.309,262.673 151.986,268.09 131.882,268.09C111.777,268.09 95.455,262.673 95.455,256L95.455,243.91Z"
                  style="fill:rgb(75,158,255);"/>
            <g transform="matrix(1,0,0,1,0,62.9363)">
                <ellipse cx="131.882" cy="180.974" rx="36.427" ry="12.09" style="fill:rgb(226,239,247);"/>
                <path d="M131.882,165.651C117.037,165.651 104.178,168.603 97.781,172.697C94.016,175.106 92.222,178.075 92.222,180.974C92.222,183.873 94.016,186.842 97.781,189.251C104.178,193.345 117.037,196.297 131.882,196.297C146.726,196.297 159.585,193.345 165.983,189.251C169.748,186.842 171.542,183.873 171.542,180.974C171.542,178.075 169.748,175.106 165.983,172.697C159.585,168.603 146.726,165.651 131.882,165.651ZM131.882,168.884C151.986,168.884 168.309,174.301 168.309,180.974C168.309,187.646 151.986,193.064 131.882,193.064C111.777,193.064 95.455,187.646 95.455,180.974C95.455,174.301 111.777,168.884 131.882,168.884Z"
                      style="fill:rgb(75,158,255);"/>
            </g>
        </g>
        <g transform="matrix(1,0,0,1,7,0)">
            <path d="M300,275C339.818,275.147 300.322,147.911 340,147.622"
                  style="fill:none;stroke:rgb(75,158,255);stroke-width:3.5px;stroke-dasharray:3.5,7,0,0;"/>
        </g>
    </g>
</svg>
